<svg xmlns="http://www.w3.org/2000/svg" width="900" height="112" viewBox="0 0 900 112" xmlns:xlink="http://www.w3.org/1999/xlink" class="WaveDrom"><g transform="translate(0.5,0.5)" text-anchor="middle" font-size="14" font-family="sans-serif" font-weight="normal"><g transform="translate(4,77)"><g stroke="black" stroke-width="1" stroke-linecap="round"><line x2="891"/><line y2="31"/><line x2="891" y1="31" y2="31"/><line x1="891" x2="891" y2="31"/><line x1="854" x2="854" y2="3"/><line x1="854" x2="854" y1="31" y2="28"/><line x1="817" x2="817" y2="3"/><line x1="817" x2="817" y1="31" y2="28"/><line x1="780" x2="780" y2="3"/><line x1="780" x2="780" y1="31" y2="28"/><line x1="743" x2="743" y2="3"/><line x1="743" x2="743" y1="31" y2="28"/><line x1="705" x2="705" y2="3"/><line x1="705" x2="705" y1="31" y2="28"/><line x1="668" x2="668" y2="3"/><line x1="668" x2="668" y1="31" y2="28"/><line x1="631" x2="631" y2="3"/><line x1="631" x2="631" y1="31" y2="28"/><line x1="594" x2="594" y2="3"/><line x1="594" x2="594" y1="31" y2="28"/><line x1="557" x2="557" y2="3"/><line x1="557" x2="557" y1="31" y2="28"/><line x1="520" x2="520" y2="3"/><line x1="520" x2="520" y1="31" y2="28"/><line x1="483" x2="483" y2="3"/><line x1="483" x2="483" y1="31" y2="28"/><line x1="446" x2="446" y2="3"/><line x1="446" x2="446" y1="31" y2="28"/><line x1="408" x2="408" y2="3"/><line x1="408" x2="408" y1="31" y2="28"/><line x1="371" x2="371" y2="3"/><line x1="371" x2="371" y1="31" y2="28"/><line x1="334" x2="334" y2="3"/><line x1="334" x2="334" y1="31" y2="28"/><line x1="297" x2="297" y2="3"/><line x1="297" x2="297" y1="31" y2="28"/><line x1="260" x2="260" y2="3"/><line x1="260" x2="260" y1="31" y2="28"/><line x1="223" x2="223" y2="3"/><line x1="223" x2="223" y1="31" y2="28"/><line x1="186" x2="186" y2="3"/><line x1="186" x2="186" y1="31" y2="28"/><line x1="149" x2="149" y2="3"/><line x1="149" x2="149" y1="31" y2="28"/><line x1="111" x2="111" y2="3"/><line x1="111" x2="111" y1="31" y2="28"/><line x1="74" x2="74" y2="3"/><line x1="74" x2="74" y1="31" y2="28"/><line x1="37" x2="37" y2="3"/><line x1="37" x2="37" y1="31" y2="28"/></g><g><g><rect width="891" height="31" field="imm24" style="fill-opacity:0.1;fill:#ff0000"/></g><g transform="translate(19,-11)"><g transform="translate(854)"><text y="6">0</text></g><g transform="translate(0)"><text y="6">23</text></g></g><g transform="translate(19,15)"><g transform="translate(427)"><text y="6"><tspan>imm24</tspan></text></g></g><g transform="translate(19,39)"/></g></g><g transform="translate(4,21)"><g stroke="black" stroke-width="1" stroke-linecap="round"><line x2="891"/><line y2="31"/><line x2="891" y1="31" y2="31"/><line x1="891" x2="891" y2="31"/><line x1="854" x2="854" y2="3"/><line x1="854" x2="854" y1="31" y2="28"/><line x1="817" x2="817" y2="3"/><line x1="817" x2="817" y1="31" y2="28"/><line x1="780" x2="780" y2="3"/><line x1="780" x2="780" y1="31" y2="28"/><line x1="743" x2="743" y2="31"/><line x1="705" x2="705" y2="3"/><line x1="705" x2="705" y1="31" y2="28"/><line x1="668" x2="668" y2="3"/><line x1="668" x2="668" y1="31" y2="28"/><line x1="631" x2="631" y2="31"/><line x1="594" x2="594" y2="3"/><line x1="594" x2="594" y1="31" y2="28"/><line x1="557" x2="557" y2="3"/><line x1="557" x2="557" y1="31" y2="28"/><line x1="520" x2="520" y2="3"/><line x1="520" x2="520" y1="31" y2="28"/><line x1="483" x2="483" y2="31"/><line x1="446" x2="446" y2="3"/><line x1="446" x2="446" y1="31" y2="28"/><line x1="408" x2="408" y2="3"/><line x1="408" x2="408" y1="31" y2="28"/><line x1="371" x2="371" y2="3"/><line x1="371" x2="371" y1="31" y2="28"/><line x1="334" x2="334" y2="31"/><line x1="297" x2="297" y2="3"/><line x1="297" x2="297" y1="31" y2="28"/><line x1="260" x2="260" y2="3"/><line x1="260" x2="260" y1="31" y2="28"/><line x1="223" x2="223" y2="3"/><line x1="223" x2="223" y1="31" y2="28"/><line x1="186" x2="186" y2="31"/><line x1="149" x2="149" y2="3"/><line x1="149" x2="149" y1="31" y2="28"/><line x1="111" x2="111" y2="3"/><line x1="111" x2="111" y1="31" y2="28"/><line x1="74" x2="74" y2="3"/><line x1="74" x2="74" y1="31" y2="28"/><line x1="37" x2="37" y2="3"/><line x1="37" x2="37" y1="31" y2="28"/></g><g><g><rect x="743" width="149" height="31" field="cnd" style="fill-opacity:0.1;fill:#aaff00"/><rect x="631" width="111" height="31" field="fmt" style="fill-opacity:0.1;fill:#aaff00"/><rect x="483" width="149" height="31" field="rb" style="fill-opacity:0.1;fill:#00ffd5"/><rect x="334" width="149" height="31" field="ra" style="fill-opacity:0.1;fill:#00ffd5"/><rect x="186" width="149" height="31" field="rd" style="fill-opacity:0.1;fill:#00ffd5"/><rect width="186" height="31" field="op" style="fill-opacity:0.1;fill:#ffbf00"/></g><g transform="translate(19,-11)"><g transform="translate(854)"><text y="6">24</text></g><g transform="translate(743)"><text y="6">27</text></g><g transform="translate(705)"><text y="6">28</text></g><g transform="translate(631)"><text y="6">30</text></g><g transform="translate(594)"><text y="6">31</text></g><g transform="translate(483)"><text y="6">34</text></g><g transform="translate(446)"><text y="6">35</text></g><g transform="translate(334)"><text y="6">38</text></g><g transform="translate(297)"><text y="6">39</text></g><g transform="translate(186)"><text y="6">42</text></g><g transform="translate(149)"><text y="6">43</text></g><g transform="translate(0)"><text y="6">47</text></g></g><g transform="translate(19,15)"><g transform="translate(798)"><text y="6"><tspan>cnd</tspan></text></g><g transform="translate(668)"><text y="6"><tspan>fmt</tspan></text></g><g transform="translate(538)"><text y="6"><tspan>rb</tspan></text></g><g transform="translate(390)"><text y="6"><tspan>ra</tspan></text></g><g transform="translate(241)"><text y="6"><tspan>rd</tspan></text></g><g transform="translate(74)"><text y="6"><tspan>op</tspan></text></g></g><g transform="translate(19,39)"/></g></g></g></svg>